<mxfile host="app.diagrams.net" modified="2024-06-07T18:51:53.071Z" agent="Mozilla/5.0 (Windows NT 10.0; Win64; x64) AppleWebKit/537.36 (KHTML, like Gecko) Chrome/125.0.0.0 Safari/537.36" etag="PFPkhyGa8X193MMqsTk8" version="24.5.2" type="device">
  <diagram name="Page-1" id="1m2ktx-wfc9ujEYTZiuH">
    <mxGraphModel dx="1434" dy="738" grid="1" gridSize="10" guides="1" tooltips="1" connect="1" arrows="1" fold="1" page="1" pageScale="1" pageWidth="850" pageHeight="1100" math="0" shadow="0">
      <root>
        <mxCell id="0" />
        <mxCell id="1" parent="0" />
        <mxCell id="oWSvbuv1WdUVOlY-dgvM-37" style="edgeStyle=none;rounded=0;orthogonalLoop=1;jettySize=auto;html=1;strokeColor=default;align=center;verticalAlign=middle;fontFamily=Helvetica;fontSize=11;fontColor=default;labelBackgroundColor=default;startArrow=classic;startSize=8;endArrow=classic;endSize=8;" parent="1" source="oWSvbuv1WdUVOlY-dgvM-2" target="oWSvbuv1WdUVOlY-dgvM-14" edge="1">
          <mxGeometry relative="1" as="geometry" />
        </mxCell>
        <mxCell id="oWSvbuv1WdUVOlY-dgvM-2" value="Apicultor" style="sketch=0;outlineConnect=0;fontColor=#232F3E;gradientColor=none;strokeColor=#000000;fillColor=#ffffff;dashed=0;verticalLabelPosition=bottom;verticalAlign=top;align=center;html=1;fontSize=12;fontStyle=0;aspect=fixed;shape=mxgraph.aws4.resourceIcon;resIcon=mxgraph.aws4.user;" parent="1" vertex="1">
          <mxGeometry x="440" y="200" width="60" height="60" as="geometry" />
        </mxCell>
        <mxCell id="oWSvbuv1WdUVOlY-dgvM-38" style="edgeStyle=orthogonalEdgeStyle;rounded=0;orthogonalLoop=1;jettySize=auto;html=1;strokeColor=default;align=center;verticalAlign=middle;fontFamily=Helvetica;fontSize=11;fontColor=default;labelBackgroundColor=default;startArrow=classic;startSize=8;endArrow=classic;endSize=8;" parent="1" source="oWSvbuv1WdUVOlY-dgvM-14" target="oWSvbuv1WdUVOlY-dgvM-16" edge="1">
          <mxGeometry relative="1" as="geometry">
            <Array as="points">
              <mxPoint x="860" y="230" />
              <mxPoint x="860" y="350" />
            </Array>
          </mxGeometry>
        </mxCell>
        <mxCell id="oWSvbuv1WdUVOlY-dgvM-14" value="App android" style="verticalLabelPosition=bottom;verticalAlign=top;html=1;shadow=0;dashed=0;strokeWidth=1;shape=mxgraph.android.phone2;strokeColor=#c0c0c0;fillColor=#000000;" parent="1" vertex="1">
          <mxGeometry x="626.99" y="191.75" width="40" height="76.5" as="geometry" />
        </mxCell>
        <mxCell id="m6-3C5DM3iTElcbZLPsP-10" style="edgeStyle=orthogonalEdgeStyle;rounded=0;orthogonalLoop=1;jettySize=auto;html=1;" edge="1" parent="1" source="oWSvbuv1WdUVOlY-dgvM-16" target="oWSvbuv1WdUVOlY-dgvM-22">
          <mxGeometry relative="1" as="geometry" />
        </mxCell>
        <mxCell id="oWSvbuv1WdUVOlY-dgvM-16" value="Rest api (MVC + Capas)" style="sketch=0;outlineConnect=0;fontColor=#232F3E;gradientColor=none;fillColor=#232F3D;strokeColor=none;dashed=0;verticalLabelPosition=bottom;verticalAlign=top;align=center;html=1;fontSize=12;fontStyle=0;aspect=fixed;pointerEvents=1;shape=mxgraph.aws4.traditional_server;" parent="1" vertex="1">
          <mxGeometry x="910" y="311" width="45" height="78" as="geometry" />
        </mxCell>
        <mxCell id="oWSvbuv1WdUVOlY-dgvM-22" value="Base de datos" style="shape=image;html=1;verticalAlign=top;verticalLabelPosition=bottom;labelBackgroundColor=#ffffff;imageAspect=0;aspect=fixed;image=https://cdn0.iconfinder.com/data/icons/evericons-24px-vol-2/24/database-128.png" parent="1" vertex="1">
          <mxGeometry x="1050" y="311" width="80" height="80" as="geometry" />
        </mxCell>
        <mxCell id="oWSvbuv1WdUVOlY-dgvM-40" style="edgeStyle=orthogonalEdgeStyle;rounded=0;orthogonalLoop=1;jettySize=auto;html=1;strokeColor=default;align=center;verticalAlign=middle;fontFamily=Helvetica;fontSize=11;fontColor=default;labelBackgroundColor=default;startArrow=classic;startSize=8;endArrow=classic;endSize=8;" parent="1" target="oWSvbuv1WdUVOlY-dgvM-16" edge="1">
          <mxGeometry relative="1" as="geometry">
            <Array as="points">
              <mxPoint x="860" y="470" />
              <mxPoint x="860" y="350" />
            </Array>
            <mxPoint x="675.4799999999996" y="470" as="sourcePoint" />
          </mxGeometry>
        </mxCell>
        <mxCell id="oWSvbuv1WdUVOlY-dgvM-43" style="edgeStyle=orthogonalEdgeStyle;rounded=0;orthogonalLoop=1;jettySize=auto;html=1;strokeColor=default;align=center;verticalAlign=middle;fontFamily=Helvetica;fontSize=11;fontColor=default;labelBackgroundColor=default;startArrow=classic;startSize=8;endArrow=classic;endSize=8;" parent="1" source="oWSvbuv1WdUVOlY-dgvM-41" target="oWSvbuv1WdUVOlY-dgvM-16" edge="1">
          <mxGeometry relative="1" as="geometry">
            <Array as="points">
              <mxPoint x="933" y="270" />
              <mxPoint x="933" y="270" />
            </Array>
          </mxGeometry>
        </mxCell>
        <mxCell id="oWSvbuv1WdUVOlY-dgvM-41" value="" style="sketch=0;outlineConnect=0;fontColor=#232F3E;gradientColor=none;fillColor=#232F3D;strokeColor=none;dashed=0;verticalLabelPosition=bottom;verticalAlign=top;align=center;html=1;fontSize=12;fontStyle=0;aspect=fixed;pointerEvents=1;shape=mxgraph.aws4.traditional_server;" parent="1" vertex="1">
          <mxGeometry x="910" y="170" width="45" height="78" as="geometry" />
        </mxCell>
        <mxCell id="oWSvbuv1WdUVOlY-dgvM-44" value="&lt;font style=&quot;font-size: 12px;&quot;&gt;Clasificador de audio&lt;/font&gt;" style="text;html=1;align=center;verticalAlign=middle;resizable=0;points=[];autosize=1;strokeColor=none;fillColor=none;fontFamily=Helvetica;fontSize=11;fontColor=default;labelBackgroundColor=default;" parent="1" vertex="1">
          <mxGeometry x="862.5" y="140" width="140" height="30" as="geometry" />
        </mxCell>
        <mxCell id="m6-3C5DM3iTElcbZLPsP-1" value="" style="sketch=0;outlineConnect=0;fontColor=#232F3E;gradientColor=none;fillColor=#232F3D;strokeColor=none;dashed=0;verticalLabelPosition=bottom;verticalAlign=top;align=center;html=1;fontSize=12;fontStyle=0;aspect=fixed;pointerEvents=1;shape=mxgraph.aws4.traditional_server;" vertex="1" parent="1">
          <mxGeometry x="1067.5" y="170" width="45" height="78" as="geometry" />
        </mxCell>
        <mxCell id="m6-3C5DM3iTElcbZLPsP-2" value="&lt;font style=&quot;font-size: 12px;&quot;&gt;Extractor de caracterÃ­sticas&lt;/font&gt;" style="text;html=1;align=center;verticalAlign=middle;resizable=0;points=[];autosize=1;strokeColor=none;fillColor=none;fontFamily=Helvetica;fontSize=11;fontColor=default;labelBackgroundColor=default;" vertex="1" parent="1">
          <mxGeometry x="1005" y="140" width="170" height="30" as="geometry" />
        </mxCell>
        <mxCell id="m6-3C5DM3iTElcbZLPsP-3" style="edgeStyle=orthogonalEdgeStyle;rounded=0;orthogonalLoop=1;jettySize=auto;html=1;strokeColor=default;align=center;verticalAlign=middle;fontFamily=Helvetica;fontSize=11;fontColor=default;labelBackgroundColor=default;startArrow=classic;startSize=8;endArrow=classic;endSize=8;" edge="1" parent="1" source="m6-3C5DM3iTElcbZLPsP-1" target="oWSvbuv1WdUVOlY-dgvM-16">
          <mxGeometry relative="1" as="geometry">
            <Array as="points">
              <mxPoint x="1090" y="260" />
              <mxPoint x="933" y="260" />
            </Array>
            <mxPoint x="943" y="258" as="sourcePoint" />
            <mxPoint x="943" y="321" as="targetPoint" />
          </mxGeometry>
        </mxCell>
        <mxCell id="m6-3C5DM3iTElcbZLPsP-5" value="Modulo abeja" style="shape=image;html=1;verticalAlign=top;verticalLabelPosition=bottom;labelBackgroundColor=#ffffff;imageAspect=0;aspect=fixed;image=https://cdn2.iconfinder.com/data/icons/electronic-13/480/3-electronic-arduino-chipset-icon-2-128.png" vertex="1" parent="1">
          <mxGeometry x="420" y="430" width="80" height="80" as="geometry" />
        </mxCell>
        <mxCell id="m6-3C5DM3iTElcbZLPsP-7" value="Modulo reina" style="shape=image;html=1;verticalAlign=top;verticalLabelPosition=bottom;labelBackgroundColor=#ffffff;imageAspect=0;aspect=fixed;image=https://cdn2.iconfinder.com/data/icons/electronic-13/480/3-electronic-arduino-chipset-icon-2-128.png" vertex="1" parent="1">
          <mxGeometry x="606.99" y="430" width="80" height="80" as="geometry" />
        </mxCell>
        <mxCell id="m6-3C5DM3iTElcbZLPsP-9" style="edgeStyle=orthogonalEdgeStyle;rounded=0;orthogonalLoop=1;jettySize=auto;html=1;strokeColor=default;align=center;verticalAlign=middle;fontFamily=Helvetica;fontSize=11;fontColor=default;labelBackgroundColor=default;startArrow=classic;startSize=8;endArrow=classic;endSize=8;" edge="1" parent="1" source="m6-3C5DM3iTElcbZLPsP-5" target="m6-3C5DM3iTElcbZLPsP-7">
          <mxGeometry relative="1" as="geometry">
            <Array as="points">
              <mxPoint x="540" y="470" />
              <mxPoint x="540" y="470" />
            </Array>
            <mxPoint x="257" y="380" as="sourcePoint" />
            <mxPoint x="500" y="500" as="targetPoint" />
          </mxGeometry>
        </mxCell>
        <mxCell id="m6-3C5DM3iTElcbZLPsP-11" value="Colmena" style="sketch=0;outlineConnect=0;fontColor=#232F3E;gradientColor=none;fillColor=#000000;strokeColor=none;dashed=0;verticalLabelPosition=bottom;verticalAlign=top;align=center;html=1;fontSize=12;fontStyle=0;aspect=fixed;pointerEvents=1;shape=mxgraph.aws4.eventbridge_saas_partner_event_bus_resource;" vertex="1" parent="1">
          <mxGeometry x="270" y="440" width="78" height="78" as="geometry" />
        </mxCell>
        <mxCell id="m6-3C5DM3iTElcbZLPsP-12" style="edgeStyle=orthogonalEdgeStyle;rounded=0;orthogonalLoop=1;jettySize=auto;html=1;strokeColor=default;align=center;verticalAlign=middle;fontFamily=Helvetica;fontSize=11;fontColor=default;labelBackgroundColor=default;startArrow=classic;startSize=8;endArrow=classic;endSize=8;" edge="1" parent="1" source="m6-3C5DM3iTElcbZLPsP-11" target="m6-3C5DM3iTElcbZLPsP-5">
          <mxGeometry relative="1" as="geometry">
            <Array as="points">
              <mxPoint x="380" y="470" />
              <mxPoint x="380" y="470" />
            </Array>
            <mxPoint x="333" y="400" as="sourcePoint" />
            <mxPoint x="440" y="400" as="targetPoint" />
          </mxGeometry>
        </mxCell>
      </root>
    </mxGraphModel>
  </diagram>
</mxfile>
